  0
SECTION
  2
HEADER
  9
$ACADVER
  1
AC1014
  9
$HANDSEED
  5
FFFF
  9
$MEASUREMENT
 70
     1
  0
ENDSEC
  0
SECTION
  2
TABLES
  0
TABLE
  2
VPORT
  5
8
330
0
100
AcDbSymbolTable
 70
     4
  0
VPORT
  5
2E
330
8
100
AcDbSymbolTableRecord
100
AcDbViewportTableRecord
  2
*ACTIVE
 70
     0
 10
0.0
 20
0.0
 11
1.0
 21
1.0
 12
210.0
 22
148.5
 13
0.0
 23
0.0
 14
10.0
 24
10.0
 15
10.0
 25
10.0
 16
0.0
 26
0.0
 36
1.0
 17
0.0
 27
0.0
 37
0.0
 40
341.0
 41
1.24
 42
50.0
 43
0.0
 44
0.0
 50
0.0
 51
0.0
 71
     0
 72
   100
 73
     1
 74
     3
 75
     0
 76
     0
 77
     0
 78
     0
  0
ENDTAB
  0
TABLE
  2
LTYPE
  5
5
330
0
100
AcDbSymbolTable
 70
     1
  0
LTYPE
  5
14
330
5
100
AcDbSymbolTableRecord
100
AcDbLinetypeTableRecord
  2
BYBLOCK
 70
     0
  3

 72
    65
 73
     0
 40
0.0
  0
LTYPE
  5
15
330
5
100
AcDbSymbolTableRecord
100
AcDbLinetypeTableRecord
  2
BYLAYER
 70
     0
  3

 72
    65
 73
     0
 40
0.0
  0
LTYPE
  5
16
330
5
100
AcDbSymbolTableRecord
100
AcDbLinetypeTableRecord
  2
CONTINUOUS
 70
     0
  3
Solid line
 72
    65
 73
     0
 40
0.0
  0
ENDTAB
  0
TABLE
  2
LAYER
  5
2
100
AcDbSymbolTable
 70
2
  0
LAYER
  5
50
100
AcDbSymbolTableRecord
100
AcDbLayerTableRecord
  2
0
 70
0
  6
CONTINUOUS
  0
LAYER
  5
51
100
AcDbSymbolTableRecord
100
AcDbLayerTableRecord
  2
mittelab
 70
0
  6
CONTINUOUS
  0
ENDTAB
  0
TABLE
  2
STYLE
  5
3
330
0
100
AcDbSymbolTable
 70
     1
  0
STYLE
  5
11
330
3
100
AcDbSymbolTableRecord
100
AcDbTextStyleTableRecord
  2
STANDARD
 70
     0
 40
0.0
 41
1.0
 50
0.0
 71
     0
 42
2.5
  3
txt
  4

  0
ENDTAB
  0
TABLE
  2
VIEW
  5
6
330
0
100
AcDbSymbolTable
 70
     0
  0
ENDTAB
  0
TABLE
  2
UCS
  5
7
330
0
100
AcDbSymbolTable
 70
     0
  0
ENDTAB
  0
TABLE
  2
APPID
  5
9
330
0
100
AcDbSymbolTable
 70
     2
  0
APPID
  5
12
330
9
100
AcDbSymbolTableRecord
100
AcDbRegAppTableRecord
  2
ACAD
 70
     0
  0
ENDTAB
  0
TABLE
  2
DIMSTYLE
  5
A
330
0
100
AcDbSymbolTable
 70
     1
  0
DIMSTYLE
105
27
330
A
100
AcDbSymbolTableRecord
100
AcDbDimStyleTableRecord
  2
ISO-25
 70
     0
  3

  4

  5

  6

  7

 40
1.0
 41
2.5
 42
0.625
 43
3.75
 44
1.25
 45
0.0
 46
0.0
 47
0.0
 48
0.0
140
2.5
141
2.5
142
0.0
143
0.03937007874016
144
1.0
145
0.0
146
1.0
147
0.625
 71
     0
 72
     0
 73
     0
 74
     0
 75
     0
 76
     0
 77
     1
 78
     8
170
     0
171
     3
172
     1
173
     0
174
     0
175
     0
176
     0
177
     0
178
     0
270
     2
271
     2
272
     2
273
     2
274
     3
340
11
275
     0
280
     0
281
     0
282
     0
283
     0
284
     8
285
     0
286
     0
287
     3
288
     0
  0
ENDTAB
  0
TABLE
  2
BLOCK_RECORD
  5
1
330
0
100
AcDbSymbolTable
 70
     1
  0
BLOCK_RECORD
  5
1F
330
1
100
AcDbSymbolTableRecord
100
AcDbBlockTableRecord
  2
*MODEL_SPACE
  0
BLOCK_RECORD
  5
1B
330
1
100
AcDbSymbolTableRecord
100
AcDbBlockTableRecord
  2
*PAPER_SPACE
  0
ENDTAB
  0
ENDSEC
  0
SECTION
  2
BLOCKS
  0
BLOCK
  5
20
330
1F
100
AcDbEntity
  8
0
100
AcDbBlockBegin
  2
*MODEL_SPACE
 70
     0
 10
0.0
 20
0.0
 30
0.0
  3
*MODEL_SPACE
  1

  0
ENDBLK
  5
21
330
1F
100
AcDbEntity
  8
0
100
AcDbBlockEnd
  0
BLOCK
  5
1C
330
1B
100
AcDbEntity
 67
     1
  8
0
100
AcDbBlockBegin
  2
*PAPER_SPACE
  1

  0
ENDBLK
  5
1D
330
1B
100
AcDbEntity
 67
     1
  8
0
100
AcDbBlockEnd
  0
ENDSEC
  0
SECTION
  2
ENTITIES
  0
SPLINE
  5
100
100
AcDbEntity
  8
mittelab
 62
7
100
AcDbSpline
 70
8
 71
3
 72
8
 73
4
 74
0
 40
0
 40
0
 40
0
 40
0
 40
1
 40
1
 40
1
 40
1
 10
73.125000
 20
67.710900
 30
0.0
 10
76.313000
 20
72.585900
 30
0.0
 10
80.086000
 20
76.288900
 30
0.0
 10
84.445000
 20
78.819900
 30
0.0
  0
SPLINE
  5
101
100
AcDbEntity
  8
mittelab
 62
7
100
AcDbSpline
 70
8
 71
3
 72
8
 73
4
 74
0
 40
0
 40
0
 40
0
 40
0
 40
1
 40
1
 40
1
 40
1
 10
84.445000
 20
78.819900
 30
0.0
 10
88.852000
 20
81.398900
 30
0.0
 10
93.680000
 20
82.687900
 30
0.0
 10
98.930000
 20
82.687900
 30
0.0
  0
SPLINE
  5
102
100
AcDbEntity
  8
mittelab
 62
7
100
AcDbSpline
 70
8
 71
3
 72
8
 73
4
 74
0
 40
0
 40
0
 40
0
 40
0
 40
1
 40
1
 40
1
 40
1
 10
98.930000
 20
82.687900
 30
0.0
 10
107.977000
 20
82.687900
 30
0.0
 10
114.867000
 20
79.898900
 30
0.0
 10
119.602000
 20
74.319900
 30
0.0
  0
SPLINE
  5
103
100
AcDbEntity
  8
mittelab
 62
7
100
AcDbSpline
 70
8
 71
3
 72
8
 73
4
 74
0
 40
0
 40
0
 40
0
 40
0
 40
1
 40
1
 40
1
 40
1
 10
119.602000
 20
74.319900
 30
0.0
 10
124.336000
 20
68.741900
 30
0.0
 10
126.703000
 20
60.632900
 30
0.0
 10
126.703000
 20
49.991900
 30
0.0
  0
SPLINE
  5
104
100
AcDbEntity
  8
mittelab
 62
7
100
AcDbSpline
 70
8
 71
3
 72
8
 73
4
 74
0
 40
0
 40
0
 40
0
 40
0
 40
1
 40
1
 40
1
 40
1
 10
101.391000
 20
43.101900
 30
0.0
 10
101.437000
 20
43.710900
 30
0.0
 10
101.461000
 20
44.343900
 30
0.0
 10
101.461000
 20
44.999900
 30
0.0
  0
SPLINE
  5
105
100
AcDbEntity
  8
mittelab
 62
7
100
AcDbSpline
 70
8
 71
3
 72
8
 73
4
 74
0
 40
0
 40
0
 40
0
 40
0
 40
1
 40
1
 40
1
 40
1
 10
101.461000
 20
44.999900
 30
0.0
 10
101.508000
 20
45.655900
 30
0.0
 10
101.531000
 20
46.593900
 30
0.0
 10
101.531000
 20
47.812900
 30
0.0
  0
SPLINE
  5
106
100
AcDbEntity
  8
mittelab
 62
7
100
AcDbSpline
 70
8
 71
3
 72
8
 73
4
 74
0
 40
0
 40
0
 40
0
 40
0
 40
1
 40
1
 40
1
 40
1
 10
101.531000
 20
47.812900
 30
0.0
 10
101.531000
 20
53.390900
 30
0.0
 10
100.711000
 20
57.421900
 30
0.0
 10
99.070000
 20
59.905900
 30
0.0
  0
SPLINE
  5
107
100
AcDbEntity
  8
mittelab
 62
7
100
AcDbSpline
 70
8
 71
3
 72
8
 73
4
 74
0
 40
0
 40
0
 40
0
 40
0
 40
1
 40
1
 40
1
 40
1
 10
99.070000
 20
59.905900
 30
0.0
 10
97.430000
 20
62.437900
 30
0.0
 10
94.781000
 20
63.702900
 30
0.0
 10
91.125000
 20
63.702900
 30
0.0
  0
SPLINE
  5
108
100
AcDbEntity
  8
mittelab
 62
7
100
AcDbSpline
 70
8
 71
3
 72
8
 73
4
 74
0
 40
0
 40
0
 40
0
 40
0
 40
1
 40
1
 40
1
 40
1
 10
91.125000
 20
63.702900
 30
0.0
 10
86.344000
 20
63.702900
 30
0.0
 10
82.641000
 20
61.733900
 30
0.0
 10
80.016000
 20
57.796900
 30
0.0
  0
SPLINE
  5
109
100
AcDbEntity
  8
mittelab
 62
7
100
AcDbSpline
 70
8
 71
3
 72
8
 73
4
 74
0
 40
0
 40
0
 40
0
 40
0
 40
1
 40
1
 40
1
 40
1
 10
80.016000
 20
57.796900
 30
0.0
 10
77.437000
 20
53.858900
 30
0.0
 10
76.102000
 20
48.163900
 30
0.0
 10
76.008000
 20
40.710900
 30
0.0
  0
LWPOLYLINE
  5
10a
100
AcDbEntity
  8
mittelab
 62
7
100
AcDbPolyline
 90
4
 70
0
 10
126.703000
 20
49.991900
 30
0.0
 10
126.703000
 20
2.038900
 30
0.0
 10
101.391000
 20
2.038900
 30
0.0
 10
101.391000
 20
43.101900
 30
0.0
  0
SPLINE
  5
10b
100
AcDbEntity
  8
mittelab
 62
7
100
AcDbSpline
 70
8
 71
3
 72
8
 73
4
 74
0
 40
0
 40
0
 40
0
 40
0
 40
1
 40
1
 40
1
 40
1
 10
50.695000
 20
43.101900
 30
0.0
 10
50.695000
 20
51.819900
 30
0.0
 10
49.945000
 20
57.421900
 30
0.0
 10
48.445000
 20
59.905900
 30
0.0
  0
SPLINE
  5
10c
100
AcDbEntity
  8
mittelab
 62
7
100
AcDbSpline
 70
8
 71
3
 72
8
 73
4
 74
0
 40
0
 40
0
 40
0
 40
0
 40
1
 40
1
 40
1
 40
1
 10
48.445000
 20
59.905900
 30
0.0
 10
46.945000
 20
62.437900
 30
0.0
 10
44.273000
 20
63.702900
 30
0.0
 10
40.430000
 20
63.702900
 30
0.0
  0
SPLINE
  5
10d
100
AcDbEntity
  8
mittelab
 62
7
100
AcDbSpline
 70
8
 71
3
 72
8
 73
4
 74
0
 40
0
 40
0
 40
0
 40
0
 40
1
 40
1
 40
1
 40
1
 10
40.430000
 20
63.702900
 30
0.0
 10
35.602000
 20
63.702900
 30
0.0
 10
31.875000
 20
61.710900
 30
0.0
 10
29.250000
 20
57.726900
 30
0.0
  0
SPLINE
  5
10e
100
AcDbEntity
  8
mittelab
 62
7
100
AcDbSpline
 70
8
 71
3
 72
8
 73
4
 74
0
 40
0
 40
0
 40
0
 40
0
 40
1
 40
1
 40
1
 40
1
 10
29.250000
 20
57.726900
 30
0.0
 10
26.625000
 20
53.788900
 30
0.0
 10
25.312000
 20
48.140900
 30
0.0
 10
25.312000
 20
40.780900
 30
0.0
  0
LWPOLYLINE
  5
10f
100
AcDbEntity
  8
mittelab
 62
7
100
AcDbPolyline
 90
4
 70
0
 10
76.008000
 20
40.710900
 30
0.0
 10
76.008000
 20
2.038900
 30
0.0
 10
50.695000
 20
2.038900
 30
0.0
 10
50.695000
 20
43.101900
 30
0.0
  0
SPLINE
  5
110
100
AcDbEntity
  8
mittelab
 62
7
100
AcDbSpline
 70
8
 71
3
 72
8
 73
4
 74
0
 40
0
 40
0
 40
0
 40
0
 40
1
 40
1
 40
1
 40
1
 10
25.312000
 20
69.257900
 30
0.0
 10
28.406000
 20
73.710900
 30
0.0
 10
31.945000
 20
77.062900
 30
0.0
 10
35.930000
 20
79.312900
 30
0.0
  0
SPLINE
  5
111
100
AcDbEntity
  8
mittelab
 62
7
100
AcDbSpline
 70
8
 71
3
 72
8
 73
4
 74
0
 40
0
 40
0
 40
0
 40
0
 40
1
 40
1
 40
1
 40
1
 10
35.930000
 20
79.312900
 30
0.0
 10
39.961000
 20
81.562900
 30
0.0
 10
44.391000
 20
82.687900
 30
0.0
 10
49.219000
 20
82.687900
 30
0.0
  0
SPLINE
  5
112
100
AcDbEntity
  8
mittelab
 62
7
100
AcDbSpline
 70
8
 71
3
 72
8
 73
4
 74
0
 40
0
 40
0
 40
0
 40
0
 40
1
 40
1
 40
1
 40
1
 10
49.219000
 20
82.687900
 30
0.0
 10
54.656000
 20
82.687900
 30
0.0
 10
59.461000
 20
81.374900
 30
0.0
 10
63.633000
 20
78.749900
 30
0.0
  0
SPLINE
  5
113
100
AcDbEntity
  8
mittelab
 62
7
100
AcDbSpline
 70
8
 71
3
 72
8
 73
4
 74
0
 40
0
 40
0
 40
0
 40
0
 40
1
 40
1
 40
1
 40
1
 10
63.633000
 20
78.749900
 30
0.0
 10
67.805000
 20
76.124900
 30
0.0
 10
70.969000
 20
72.444900
 30
0.0
 10
73.125000
 20
67.710900
 30
0.0
  0
LWPOLYLINE
  5
114
100
AcDbEntity
  8
mittelab
 62
7
100
AcDbPolyline
 90
6
 70
0
 10
25.312000
 20
40.780900
 30
0.0
 10
25.312000
 20
2.038900
 30
0.0
 10
0.000000
 20
2.038900
 30
0.0
 10
0.000000
 20
80.788900
 30
0.0
 10
25.312000
 20
80.788900
 30
0.0
 10
25.312000
 20
69.257900
 30
0.0
  0
LWPOLYLINE
  5
115
100
AcDbEntity
  8
mittelab
 62
7
100
AcDbPolyline
 90
6
 70
1
 10
150.328000
 20
80.789000
 30
0.0
 10
175.500000
 20
80.789000
 30
0.0
 10
175.500000
 20
2.039000
 30
0.0
 10
150.328000
 20
2.039000
 30
0.0
 10
150.328000
 20
80.789000
 30
0.0
 10
150.328000
 20
80.789000
 30
0.0
  0
SPLINE
  5
116
100
AcDbEntity
  8
mittelab
 62
7
100
AcDbSpline
 70
8
 71
3
 72
8
 73
4
 74
0
 40
0
 40
0
 40
0
 40
0
 40
1
 40
1
 40
1
 40
1
 10
227.320300
 20
29.390400
 30
0.0
 10
227.320300
 20
25.734400
 30
0.0
 10
228.047300
 20
23.250400
 30
0.0
 10
229.500300
 20
21.937400
 30
0.0
  0
SPLINE
  5
117
100
AcDbEntity
  8
mittelab
 62
7
100
AcDbSpline
 70
8
 71
3
 72
8
 73
4
 74
0
 40
0
 40
0
 40
0
 40
0
 40
1
 40
1
 40
1
 40
1
 10
229.500300
 20
21.937400
 30
0.0
 10
230.953300
 20
20.671400
 30
0.0
 10
233.836300
 20
20.039400
 30
0.0
 10
238.148300
 20
20.039400
 30
0.0
  0
LWPOLYLINE
  5
118
100
AcDbEntity
  8
mittelab
 62
7
100
AcDbPolyline
 90
6
 70
1
 10
227.320300
 20
103.148400
 30
0.0
 10
227.320300
 20
80.789400
 30
0.0
 10
253.265300
 20
80.789400
 30
0.0
 10
253.265300
 20
62.789400
 30
0.0
 10
227.320300
 20
62.789400
 30
0.0
 10
227.320300
 20
29.390400
 30
0.0
  0
SPLINE
  5
119
100
AcDbEntity
  8
mittelab
 62
7
100
AcDbSpline
 70
8
 71
3
 72
8
 73
4
 74
0
 40
0
 40
0
 40
0
 40
0
 40
1
 40
1
 40
1
 40
1
 10
229.500300
 20
2.039400
 30
0.0
 10
219.562300
 20
2.039400
 30
0.0
 10
212.507300
 20
4.101400
 30
0.0
 10
208.336300
 20
8.226400
 30
0.0
  0
SPLINE
  5
11a
100
AcDbEntity
  8
mittelab
 62
7
100
AcDbSpline
 70
8
 71
3
 72
8
 73
4
 74
0
 40
0
 40
0
 40
0
 40
0
 40
1
 40
1
 40
1
 40
1
 10
208.336300
 20
8.226400
 30
0.0
 10
204.211300
 20
12.398400
 30
0.0
 10
202.148300
 20
19.453400
 30
0.0
 10
202.148300
 20
29.390400
 30
0.0
  0
LWPOLYLINE
  5
11b
100
AcDbEntity
  8
mittelab
 62
7
100
AcDbPolyline
 90
4
 70
1
 10
238.148300
 20
20.039400
 30
0.0
 10
251.086300
 20
20.039400
 30
0.0
 10
251.086300
 20
2.039400
 30
0.0
 10
229.500300
 20
2.039400
 30
0.0
  0
LWPOLYLINE
  5
11c
100
AcDbEntity
  8
mittelab
 62
7
100
AcDbPolyline
 90
8
 70
1
 10
202.148300
 20
29.390400
 30
0.0
 10
202.148300
 20
62.789400
 30
0.0
 10
189.632300
 20
62.789400
 30
0.0
 10
189.632300
 20
80.789400
 30
0.0
 10
202.148300
 20
80.789400
 30
0.0
 10
202.148300
 20
103.148400
 30
0.0
 10
227.320300
 20
103.148400
 30
0.0
 10
227.320300
 20
103.148400
 30
0.0
  0
SPLINE
  5
11d
100
AcDbEntity
  8
mittelab
 62
7
100
AcDbSpline
 70
8
 71
3
 72
8
 73
4
 74
0
 40
0
 40
0
 40
0
 40
0
 40
1
 40
1
 40
1
 40
1
 10
296.226600
 20
29.390400
 30
0.0
 10
296.226600
 20
25.734400
 30
0.0
 10
296.953600
 20
23.250400
 30
0.0
 10
298.406600
 20
21.937400
 30
0.0
  0
SPLINE
  5
11e
100
AcDbEntity
  8
mittelab
 62
7
100
AcDbSpline
 70
8
 71
3
 72
8
 73
4
 74
0
 40
0
 40
0
 40
0
 40
0
 40
1
 40
1
 40
1
 40
1
 10
298.406600
 20
21.937400
 30
0.0
 10
299.859600
 20
20.671400
 30
0.0
 10
302.742600
 20
20.039400
 30
0.0
 10
307.054600
 20
20.039400
 30
0.0
  0
LWPOLYLINE
  5
11f
100
AcDbEntity
  8
mittelab
 62
7
100
AcDbPolyline
 90
6
 70
1
 10
296.226600
 20
103.148400
 30
0.0
 10
296.226600
 20
80.789400
 30
0.0
 10
322.171600
 20
80.789400
 30
0.0
 10
322.171600
 20
62.789400
 30
0.0
 10
296.226600
 20
62.789400
 30
0.0
 10
296.226600
 20
29.390400
 30
0.0
  0
SPLINE
  5
120
100
AcDbEntity
  8
mittelab
 62
7
100
AcDbSpline
 70
8
 71
3
 72
8
 73
4
 74
0
 40
0
 40
0
 40
0
 40
0
 40
1
 40
1
 40
1
 40
1
 10
298.406600
 20
2.039400
 30
0.0
 10
288.468600
 20
2.039400
 30
0.0
 10
281.413600
 20
4.101400
 30
0.0
 10
277.242600
 20
8.226400
 30
0.0
  0
SPLINE
  5
121
100
AcDbEntity
  8
mittelab
 62
7
100
AcDbSpline
 70
8
 71
3
 72
8
 73
4
 74
0
 40
0
 40
0
 40
0
 40
0
 40
1
 40
1
 40
1
 40
1
 10
277.242600
 20
8.226400
 30
0.0
 10
273.117600
 20
12.398400
 30
0.0
 10
271.054600
 20
19.453400
 30
0.0
 10
271.054600
 20
29.390400
 30
0.0
  0
LWPOLYLINE
  5
122
100
AcDbEntity
  8
mittelab
 62
7
100
AcDbPolyline
 90
4
 70
1
 10
307.054600
 20
20.039400
 30
0.0
 10
319.992600
 20
20.039400
 30
0.0
 10
319.992600
 20
2.039400
 30
0.0
 10
298.406600
 20
2.039400
 30
0.0
  0
SPLINE
  5
123
100
AcDbEntity
  8
mittelab
 62
7
100
AcDbSpline
 70
8
 71
3
 72
8
 73
4
 74
0
 40
0
 40
0
 40
0
 40
0
 40
1
 40
1
 40
1
 40
1
 10
390.375000
 20
49.992200
 30
0.0
 10
390.375000
 20
54.773200
 30
0.0
 10
388.969000
 20
58.617200
 30
0.0
 10
386.156000
 20
61.523200
 30
0.0
  0
SPLINE
  5
124
100
AcDbEntity
  8
mittelab
 62
7
100
AcDbSpline
 70
8
 71
3
 72
8
 73
4
 74
0
 40
0
 40
0
 40
0
 40
0
 40
1
 40
1
 40
1
 40
1
 10
386.156000
 20
61.523200
 30
0.0
 10
383.391000
 20
64.476200
 30
0.0
 10
379.758000
 20
65.953200
 30
0.0
 10
375.258000
 20
65.953200
 30
0.0
  0
SPLINE
  5
125
100
AcDbEntity
  8
mittelab
 62
7
100
AcDbSpline
 70
8
 71
3
 72
8
 73
4
 74
0
 40
0
 40
0
 40
0
 40
0
 40
1
 40
1
 40
1
 40
1
 10
375.258000
 20
65.953200
 30
0.0
 10
370.383000
 20
65.953200
 30
0.0
 10
366.422000
 20
64.570200
 30
0.0
 10
363.375000
 20
61.805200
 30
0.0
  0
SPLINE
  5
126
100
AcDbEntity
  8
mittelab
 62
7
100
AcDbSpline
 70
8
 71
3
 72
8
 73
4
 74
0
 40
0
 40
0
 40
0
 40
0
 40
1
 40
1
 40
1
 40
1
 10
363.375000
 20
61.805200
 30
0.0
 10
360.328000
 20
59.086200
 30
0.0
 10
358.430000
 20
55.148200
 30
0.0
 10
357.680000
 20
49.992200
 30
0.0
  0
LWPOLYLINE
  5
127
100
AcDbEntity
  8
mittelab
 62
7
100
AcDbPolyline
 90
8
 70
1
 10
271.054600
 20
29.390400
 30
0.0
 10
271.054600
 20
62.789400
 30
0.0
 10
258.538600
 20
62.789400
 30
0.0
 10
258.538600
 20
80.789400
 30
0.0
 10
271.054600
 20
80.789400
 30
0.0
 10
271.054600
 20
103.148400
 30
0.0
 10
296.226600
 20
103.148400
 30
0.0
 10
296.226600
 20
103.148400
 30
0.0
  0
LWPOLYLINE
  5
128
100
AcDbEntity
  8
mittelab
 62
7
100
AcDbPolyline
 90
3
 70
0
 10
357.680000
 20
49.992200
 30
0.0
 10
390.375000
 20
49.992200
 30
0.0
 10
390.375000
 20
49.992200
 30
0.0
  0
SPLINE
  5
129
100
AcDbEntity
  8
mittelab
 62
7
100
AcDbSpline
 70
8
 71
3
 72
8
 73
4
 74
0
 40
0
 40
0
 40
0
 40
0
 40
1
 40
1
 40
1
 40
1
 10
357.398000
 20
34.453200
 30
0.0
 10
358.008000
 20
28.547200
 30
0.0
 10
360.141000
 20
24.117200
 30
0.0
 10
363.797000
 20
21.164200
 30
0.0
  0
SPLINE
  5
12a
100
AcDbEntity
  8
mittelab
 62
7
100
AcDbSpline
 70
8
 71
3
 72
8
 73
4
 74
0
 40
0
 40
0
 40
0
 40
0
 40
1
 40
1
 40
1
 40
1
 10
363.797000
 20
21.164200
 30
0.0
 10
367.453000
 20
18.211200
 30
0.0
 10
372.563000
 20
16.734200
 30
0.0
 10
379.125000
 20
16.734200
 30
0.0
  0
SPLINE
  5
12b
100
AcDbEntity
  8
mittelab
 62
7
100
AcDbSpline
 70
8
 71
3
 72
8
 73
4
 74
0
 40
0
 40
0
 40
0
 40
0
 40
1
 40
1
 40
1
 40
1
 10
379.125000
 20
16.734200
 30
0.0
 10
384.422000
 20
16.734200
 30
0.0
 10
389.836000
 20
17.508200
 30
0.0
 10
395.367000
 20
19.055200
 30
0.0
  0
SPLINE
  5
12c
100
AcDbEntity
  8
mittelab
 62
7
100
AcDbSpline
 70
8
 71
3
 72
8
 73
4
 74
0
 40
0
 40
0
 40
0
 40
0
 40
1
 40
1
 40
1
 40
1
 10
395.367000
 20
19.055200
 30
0.0
 10
400.945000
 20
20.648200
 30
0.0
 10
406.664000
 20
23.039200
 30
0.0
 10
412.523000
 20
26.226200
 30
0.0
  0
LWPOLYLINE
  5
12d
100
AcDbEntity
  8
mittelab
 62
7
100
AcDbPolyline
 90
3
 70
0
 10
416.250000
 20
41.625200
 30
0.0
 10
416.250000
 20
34.453200
 30
0.0
 10
357.398000
 20
34.453200
 30
0.0
  0
SPLINE
  5
12e
100
AcDbEntity
  8
mittelab
 62
7
100
AcDbSpline
 70
8
 71
3
 72
8
 73
4
 74
0
 40
0
 40
0
 40
0
 40
0
 40
1
 40
1
 40
1
 40
1
 10
412.523000
 20
6.820200
 30
0.0
 10
406.570000
 20
4.570200
 30
0.0
 10
400.617000
 20
2.883200
 30
0.0
 10
394.664000
 20
1.758200
 30
0.0
  0
SPLINE
  5
12f
100
AcDbEntity
  8
mittelab
 62
7
100
AcDbSpline
 70
8
 71
3
 72
8
 73
4
 74
0
 40
0
 40
0
 40
0
 40
0
 40
1
 40
1
 40
1
 40
1
 10
394.664000
 20
1.758200
 30
0.0
 10
388.711000
 20
0.586200
 30
0.0
 10
382.758000
 20
0.000200
 30
0.0
 10
376.805000
 20
0.000200
 30
0.0
  0
SPLINE
  5
130
100
AcDbEntity
  8
mittelab
 62
7
100
AcDbSpline
 70
8
 71
3
 72
8
 73
4
 74
0
 40
0
 40
0
 40
0
 40
0
 40
1
 40
1
 40
1
 40
1
 10
376.805000
 20
0.000200
 30
0.0
 10
362.555000
 20
0.000200
 30
0.0
 10
351.469000
 20
3.609200
 30
0.0
 10
343.547000
 20
10.828200
 30
0.0
  0
SPLINE
  5
131
100
AcDbEntity
  8
mittelab
 62
7
100
AcDbSpline
 70
8
 71
3
 72
8
 73
4
 74
0
 40
0
 40
0
 40
0
 40
0
 40
1
 40
1
 40
1
 40
1
 10
343.547000
 20
10.828200
 30
0.0
 10
335.672000
 20
18.094200
 30
0.0
 10
331.734000
 20
28.265200
 30
0.0
 10
331.734000
 20
41.344200
 30
0.0
  0
SPLINE
  5
132
100
AcDbEntity
  8
mittelab
 62
7
100
AcDbSpline
 70
8
 71
3
 72
8
 73
4
 74
0
 40
0
 40
0
 40
0
 40
0
 40
1
 40
1
 40
1
 40
1
 10
331.734000
 20
41.344200
 30
0.0
 10
331.734000
 20
54.187200
 30
0.0
 10
335.602000
 20
64.289200
 30
0.0
 10
343.336000
 20
71.648200
 30
0.0
  0
SPLINE
  5
133
100
AcDbEntity
  8
mittelab
 62
7
100
AcDbSpline
 70
8
 71
3
 72
8
 73
4
 74
0
 40
0
 40
0
 40
0
 40
0
 40
1
 40
1
 40
1
 40
1
 10
343.336000
 20
71.648200
 30
0.0
 10
351.117000
 20
79.008200
 30
0.0
 10
361.805000
 20
82.687200
 30
0.0
 10
375.398000
 20
82.687200
 30
0.0
  0
SPLINE
  5
134
100
AcDbEntity
  8
mittelab
 62
7
100
AcDbSpline
 70
8
 71
3
 72
8
 73
4
 74
0
 40
0
 40
0
 40
0
 40
0
 40
1
 40
1
 40
1
 40
1
 10
375.398000
 20
82.687200
 30
0.0
 10
387.773000
 20
82.687200
 30
0.0
 10
397.664000
 20
78.961200
 30
0.0
 10
405.070000
 20
71.508200
 30
0.0
  0
SPLINE
  5
135
100
AcDbEntity
  8
mittelab
 62
7
100
AcDbSpline
 70
8
 71
3
 72
8
 73
4
 74
0
 40
0
 40
0
 40
0
 40
0
 40
1
 40
1
 40
1
 40
1
 10
405.070000
 20
71.508200
 30
0.0
 10
412.523000
 20
64.055200
 30
0.0
 10
416.250000
 20
54.094200
 30
0.0
 10
416.250000
 20
41.625200
 30
0.0
  0
LWPOLYLINE
  5
136
100
AcDbEntity
  8
mittelab
 62
7
100
AcDbPolyline
 90
2
 70
0
 10
412.523000
 20
26.226200
 30
0.0
 10
412.523000
 20
6.820200
 30
0.0
  0
LWPOLYLINE
  5
137
100
AcDbEntity
  8
mittelab
 62
7
100
AcDbPolyline
 90
6
 70
1
 10
435.234000
 20
111.445000
 30
0.0
 10
460.406000
 20
111.445000
 30
0.0
 10
460.406000
 20
2.039000
 30
0.0
 10
435.234000
 20
2.039000
 30
0.0
 10
435.234000
 20
111.445000
 30
0.0
 10
435.234000
 20
111.445000
 30
0.0
  0
SPLINE
  5
138
100
AcDbEntity
  8
mittelab
 62
7
100
AcDbSpline
 70
8
 71
3
 72
8
 73
4
 74
0
 40
0
 40
0
 40
0
 40
0
 40
1
 40
1
 40
1
 40
1
 10
533.109200
 20
13.710800
 30
0.0
 10
529.734200
 20
8.929800
 30
0.0
 10
525.937200
 20
5.437800
 30
0.0
 10
521.719200
 20
3.234800
 30
0.0
  0
SPLINE
  5
139
100
AcDbEntity
  8
mittelab
 62
7
100
AcDbSpline
 70
8
 71
3
 72
8
 73
4
 74
0
 40
0
 40
0
 40
0
 40
0
 40
1
 40
1
 40
1
 40
1
 10
521.719200
 20
3.234800
 30
0.0
 10
517.500200
 20
1.077800
 30
0.0
 10
512.367200
 20
-0.000200
 30
0.0
 10
506.320200
 20
-0.000200
 30
0.0
  0
SPLINE
  5
13a
100
AcDbEntity
  8
mittelab
 62
7
100
AcDbSpline
 70
8
 71
3
 72
8
 73
4
 74
0
 40
0
 40
0
 40
0
 40
0
 40
1
 40
1
 40
1
 40
1
 10
506.320200
 20
-0.000200
 30
0.0
 10
498.164200
 20
-0.000200
 30
0.0
 10
491.531200
 20
2.366800
 30
0.0
 10
486.422200
 20
7.101800
 30
0.0
  0
SPLINE
  5
13b
100
AcDbEntity
  8
mittelab
 62
7
100
AcDbSpline
 70
8
 71
3
 72
8
 73
4
 74
0
 40
0
 40
0
 40
0
 40
0
 40
1
 40
1
 40
1
 40
1
 10
486.422200
 20
7.101800
 30
0.0
 10
481.359200
 20
11.882800
 30
0.0
 10
478.828200
 20
18.070800
 30
0.0
 10
478.828200
 20
25.663800
 30
0.0
  0
SPLINE
  5
13c
100
AcDbEntity
  8
mittelab
 62
7
100
AcDbSpline
 70
8
 71
3
 72
8
 73
4
 74
0
 40
0
 40
0
 40
0
 40
0
 40
1
 40
1
 40
1
 40
1
 10
478.828200
 20
25.663800
 30
0.0
 10
478.828200
 20
34.898800
 30
0.0
 10
481.992200
 20
41.671800
 30
0.0
 10
488.320200
 20
45.984800
 30
0.0
  0
SPLINE
  5
13d
100
AcDbEntity
  8
mittelab
 62
7
100
AcDbSpline
 70
8
 71
3
 72
8
 73
4
 74
0
 40
0
 40
0
 40
0
 40
0
 40
1
 40
1
 40
1
 40
1
 10
488.320200
 20
45.984800
 30
0.0
 10
494.695200
 20
50.296800
 30
0.0
 10
504.680200
 20
52.452800
 30
0.0
 10
518.273200
 20
52.452800
 30
0.0
  0
LWPOLYLINE
  5
13e
100
AcDbEntity
  8
mittelab
 62
7
100
AcDbPolyline
 90
4
 70
1
 10
558.492200
 20
46.968800
 30
0.0
 10
558.492200
 20
2.038800
 30
0.0
 10
533.109200
 20
2.038800
 30
0.0
 10
533.109200
 20
13.710800
 30
0.0
  0
SPLINE
  5
13f
100
AcDbEntity
  8
mittelab
 62
7
100
AcDbSpline
 70
8
 71
3
 72
8
 73
4
 74
0
 40
0
 40
0
 40
0
 40
0
 40
1
 40
1
 40
1
 40
1
 10
533.109200
 20
54.421800
 30
0.0
 10
533.109200
 20
58.406800
 30
0.0
 10
531.539200
 20
61.312800
 30
0.0
 10
528.398200
 20
63.140800
 30
0.0
  0
SPLINE
  5
140
100
AcDbEntity
  8
mittelab
 62
7
100
AcDbSpline
 70
8
 71
3
 72
8
 73
4
 74
0
 40
0
 40
0
 40
0
 40
0
 40
1
 40
1
 40
1
 40
1
 10
528.398200
 20
63.140800
 30
0.0
 10
525.258200
 20
65.015800
 30
0.0
 10
520.359200
 20
65.952800
 30
0.0
 10
513.703200
 20
65.952800
 30
0.0
  0
SPLINE
  5
141
100
AcDbEntity
  8
mittelab
 62
7
100
AcDbSpline
 70
8
 71
3
 72
8
 73
4
 74
0
 40
0
 40
0
 40
0
 40
0
 40
1
 40
1
 40
1
 40
1
 10
513.703200
 20
65.952800
 30
0.0
 10
508.312200
 20
65.952800
 30
0.0
 10
503.297200
 20
65.413800
 30
0.0
 10
498.656200
 20
64.335800
 30
0.0
  0
SPLINE
  5
142
100
AcDbEntity
  8
mittelab
 62
7
100
AcDbSpline
 70
8
 71
3
 72
8
 73
4
 74
0
 40
0
 40
0
 40
0
 40
0
 40
1
 40
1
 40
1
 40
1
 10
498.656200
 20
64.335800
 30
0.0
 10
494.015200
 20
63.257800
 30
0.0
 10
489.703200
 20
61.640800
 30
0.0
 10
485.719200
 20
59.484800
 30
0.0
  0
LWPOLYLINE
  5
143
100
AcDbEntity
  8
mittelab
 62
7
100
AcDbPolyline
 90
3
 70
1
 10
518.273200
 20
52.452800
 30
0.0
 10
533.109200
 20
52.452800
 30
0.0
 10
533.109200
 20
54.421800
 30
0.0
  0
SPLINE
  5
144
100
AcDbEntity
  8
mittelab
 62
7
100
AcDbSpline
 70
8
 71
3
 72
8
 73
4
 74
0
 40
0
 40
0
 40
0
 40
0
 40
1
 40
1
 40
1
 40
1
 10
485.719200
 20
78.679800
 30
0.0
 10
491.109200
 20
79.991800
 30
0.0
 10
496.523200
 20
80.976800
 30
0.0
 10
501.961200
 20
81.632800
 30
0.0
  0
SPLINE
  5
145
100
AcDbEntity
  8
mittelab
 62
7
100
AcDbSpline
 70
8
 71
3
 72
8
 73
4
 74
0
 40
0
 40
0
 40
0
 40
0
 40
1
 40
1
 40
1
 40
1
 10
501.961200
 20
81.632800
 30
0.0
 10
507.398200
 20
82.335800
 30
0.0
 10
512.836200
 20
82.687800
 30
0.0
 10
518.273200
 20
82.687800
 30
0.0
  0
SPLINE
  5
146
100
AcDbEntity
  8
mittelab
 62
7
100
AcDbSpline
 70
8
 71
3
 72
8
 73
4
 74
0
 40
0
 40
0
 40
0
 40
0
 40
1
 40
1
 40
1
 40
1
 10
518.273200
 20
82.687800
 30
0.0
 10
532.476200
 20
82.687800
 30
0.0
 10
542.719200
 20
79.874800
 30
0.0
 10
549.000200
 20
74.249800
 30
0.0
  0
SPLINE
  5
147
100
AcDbEntity
  8
mittelab
 62
7
100
AcDbSpline
 70
8
 71
3
 72
8
 73
4
 74
0
 40
0
 40
0
 40
0
 40
0
 40
1
 40
1
 40
1
 40
1
 10
549.000200
 20
74.249800
 30
0.0
 10
555.328200
 20
68.671800
 30
0.0
 10
558.492200
 20
59.577800
 30
0.0
 10
558.492200
 20
46.968800
 30
0.0
  0
SPLINE
  5
148
100
AcDbEntity
  8
mittelab
 62
7
100
AcDbSpline
 70
8
 71
3
 72
8
 73
4
 74
0
 40
0
 40
0
 40
0
 40
0
 40
1
 40
1
 40
1
 40
1
 10
520.031200
 20
37.476800
 30
0.0
 10
514.781200
 20
37.476800
 30
0.0
 10
510.820200
 20
36.585800
 30
0.0
 10
508.148200
 20
34.804800
 30
0.0
  0
SPLINE
  5
149
100
AcDbEntity
  8
mittelab
 62
7
100
AcDbSpline
 70
8
 71
3
 72
8
 73
4
 74
0
 40
0
 40
0
 40
0
 40
0
 40
1
 40
1
 40
1
 40
1
 10
508.148200
 20
34.804800
 30
0.0
 10
505.523200
 20
33.023800
 30
0.0
 10
504.211200
 20
30.398800
 30
0.0
 10
504.211200
 20
26.929800
 30
0.0
  0
SPLINE
  5
14a
100
AcDbEntity
  8
mittelab
 62
7
100
AcDbSpline
 70
8
 71
3
 72
8
 73
4
 74
0
 40
0
 40
0
 40
0
 40
0
 40
1
 40
1
 40
1
 40
1
 10
504.211200
 20
26.929800
 30
0.0
 10
504.211200
 20
23.741800
 30
0.0
 10
505.265200
 20
21.234800
 30
0.0
 10
507.375200
 20
19.406800
 30
0.0
  0
SPLINE
  5
14b
100
AcDbEntity
  8
mittelab
 62
7
100
AcDbSpline
 70
8
 71
3
 72
8
 73
4
 74
0
 40
0
 40
0
 40
0
 40
0
 40
1
 40
1
 40
1
 40
1
 10
507.375200
 20
19.406800
 30
0.0
 10
509.531200
 20
17.624800
 30
0.0
 10
512.508200
 20
16.734800
 30
0.0
 10
516.304200
 20
16.734800
 30
0.0
  0
SPLINE
  5
14c
100
AcDbEntity
  8
mittelab
 62
7
100
AcDbSpline
 70
8
 71
3
 72
8
 73
4
 74
0
 40
0
 40
0
 40
0
 40
0
 40
1
 40
1
 40
1
 40
1
 10
516.304200
 20
16.734800
 30
0.0
 10
521.039200
 20
16.734800
 30
0.0
 10
525.023200
 20
18.421800
 30
0.0
 10
528.258200
 20
21.796800
 30
0.0
  0
SPLINE
  5
14d
100
AcDbEntity
  8
mittelab
 62
7
100
AcDbSpline
 70
8
 71
3
 72
8
 73
4
 74
0
 40
0
 40
0
 40
0
 40
0
 40
1
 40
1
 40
1
 40
1
 10
528.258200
 20
21.796800
 30
0.0
 10
531.492200
 20
25.218800
 30
0.0
 10
533.109200
 20
29.484800
 30
0.0
 10
533.109200
 20
34.593800
 30
0.0
  0
LWPOLYLINE
  5
14e
100
AcDbEntity
  8
mittelab
 62
7
100
AcDbPolyline
 90
2
 70
1
 10
485.719200
 20
59.484800
 30
0.0
 10
485.719200
 20
78.679800
 30
0.0
  0
SPLINE
  5
14f
100
AcDbEntity
  8
mittelab
 62
7
100
AcDbSpline
 70
8
 71
3
 72
8
 73
4
 74
0
 40
0
 40
0
 40
0
 40
0
 40
1
 40
1
 40
1
 40
1
 10
607.218700
 20
69.257800
 30
0.0
 10
610.687700
 20
73.851800
 30
0.0
 10
614.531700
 20
77.226800
 30
0.0
 10
618.749700
 20
79.382800
 30
0.0
  0
SPLINE
  5
150
100
AcDbEntity
  8
mittelab
 62
7
100
AcDbSpline
 70
8
 71
3
 72
8
 73
4
 74
0
 40
0
 40
0
 40
0
 40
0
 40
1
 40
1
 40
1
 40
1
 10
618.749700
 20
79.382800
 30
0.0
 10
622.968700
 20
81.585800
 30
0.0
 10
627.820700
 20
82.687800
 30
0.0
 10
633.304700
 20
82.687800
 30
0.0
  0
SPLINE
  5
151
100
AcDbEntity
  8
mittelab
 62
7
100
AcDbSpline
 70
8
 71
3
 72
8
 73
4
 74
0
 40
0
 40
0
 40
0
 40
0
 40
1
 40
1
 40
1
 40
1
 10
633.304700
 20
82.687800
 30
0.0
 10
643.007700
 20
82.687800
 30
0.0
 10
650.976700
 20
78.820800
 30
0.0
 10
657.210700
 20
71.085800
 30
0.0
  0
SPLINE
  5
152
100
AcDbEntity
  8
mittelab
 62
7
100
AcDbSpline
 70
8
 71
3
 72
8
 73
4
 74
0
 40
0
 40
0
 40
0
 40
0
 40
1
 40
1
 40
1
 40
1
 10
657.210700
 20
71.085800
 30
0.0
 10
663.445700
 20
63.398800
 30
0.0
 10
666.562700
 20
53.484800
 30
0.0
 10
666.562700
 20
41.343800
 30
0.0
  0
SPLINE
  5
153
100
AcDbEntity
  8
mittelab
 62
7
100
AcDbSpline
 70
8
 71
3
 72
8
 73
4
 74
0
 40
0
 40
0
 40
0
 40
0
 40
1
 40
1
 40
1
 40
1
 10
666.562700
 20
41.343800
 30
0.0
 10
666.562700
 20
29.202800
 30
0.0
 10
663.445700
 20
19.265800
 30
0.0
 10
657.210700
 20
11.530800
 30
0.0
  0
SPLINE
  5
154
100
AcDbEntity
  8
mittelab
 62
7
100
AcDbSpline
 70
8
 71
3
 72
8
 73
4
 74
0
 40
0
 40
0
 40
0
 40
0
 40
1
 40
1
 40
1
 40
1
 10
657.210700
 20
11.530800
 30
0.0
 10
650.976700
 20
3.843800
 30
0.0
 10
643.007700
 20
-0.000200
 30
0.0
 10
633.304700
 20
-0.000200
 30
0.0
  0
SPLINE
  5
155
100
AcDbEntity
  8
mittelab
 62
7
100
AcDbSpline
 70
8
 71
3
 72
8
 73
4
 74
0
 40
0
 40
0
 40
0
 40
0
 40
1
 40
1
 40
1
 40
1
 10
633.304700
 20
-0.000200
 30
0.0
 10
627.820700
 20
-0.000200
 30
0.0
 10
622.968700
 20
1.077800
 30
0.0
 10
618.749700
 20
3.234800
 30
0.0
  0
SPLINE
  5
156
100
AcDbEntity
  8
mittelab
 62
7
100
AcDbSpline
 70
8
 71
3
 72
8
 73
4
 74
0
 40
0
 40
0
 40
0
 40
0
 40
1
 40
1
 40
1
 40
1
 10
618.749700
 20
3.234800
 30
0.0
 10
614.531700
 20
5.437800
 30
0.0
 10
610.687700
 20
8.835800
 30
0.0
 10
607.218700
 20
13.429800
 30
0.0
  0
LWPOLYLINE
  5
157
100
AcDbEntity
  8
mittelab
 62
7
100
AcDbPolyline
 90
4
 70
1
 10
533.109200
 20
34.593800
 30
0.0
 10
533.109200
 20
37.476800
 30
0.0
 10
520.031200
 20
37.476800
 30
0.0
 10
520.031200
 20
37.476800
 30
0.0
  0
SPLINE
  5
158
100
AcDbEntity
  8
mittelab
 62
7
100
AcDbSpline
 70
8
 71
3
 72
8
 73
4
 74
0
 40
0
 40
0
 40
0
 40
0
 40
1
 40
1
 40
1
 40
1
 10
623.952700
 20
18.280800
 30
0.0
 10
629.343700
 20
18.280800
 30
0.0
 10
633.445700
 20
20.249800
 30
0.0
 10
636.257700
 20
24.187800
 30
0.0
  0
SPLINE
  5
159
100
AcDbEntity
  8
mittelab
 62
7
100
AcDbSpline
 70
8
 71
3
 72
8
 73
4
 74
0
 40
0
 40
0
 40
0
 40
0
 40
1
 40
1
 40
1
 40
1
 10
636.257700
 20
24.187800
 30
0.0
 10
639.116700
 20
28.124800
 30
0.0
 10
640.546700
 20
33.843800
 30
0.0
 10
640.546700
 20
41.343800
 30
0.0
  0
SPLINE
  5
15a
100
AcDbEntity
  8
mittelab
 62
7
100
AcDbSpline
 70
8
 71
3
 72
8
 73
4
 74
0
 40
0
 40
0
 40
0
 40
0
 40
1
 40
1
 40
1
 40
1
 10
640.546700
 20
41.343800
 30
0.0
 10
640.546700
 20
48.843800
 30
0.0
 10
639.116700
 20
54.562800
 30
0.0
 10
636.257700
 20
58.499800
 30
0.0
  0
SPLINE
  5
15b
100
AcDbEntity
  8
mittelab
 62
7
100
AcDbSpline
 70
8
 71
3
 72
8
 73
4
 74
0
 40
0
 40
0
 40
0
 40
0
 40
1
 40
1
 40
1
 40
1
 10
636.257700
 20
58.499800
 30
0.0
 10
633.445700
 20
62.437800
 30
0.0
 10
629.343700
 20
64.405800
 30
0.0
 10
623.952700
 20
64.405800
 30
0.0
  0
SPLINE
  5
15c
100
AcDbEntity
  8
mittelab
 62
7
100
AcDbSpline
 70
8
 71
3
 72
8
 73
4
 74
0
 40
0
 40
0
 40
0
 40
0
 40
1
 40
1
 40
1
 40
1
 10
623.952700
 20
64.405800
 30
0.0
 10
618.562700
 20
64.405800
 30
0.0
 10
614.413700
 20
62.413800
 30
0.0
 10
611.507700
 20
58.429800
 30
0.0
  0
SPLINE
  5
15d
100
AcDbEntity
  8
mittelab
 62
7
100
AcDbSpline
 70
8
 71
3
 72
8
 73
4
 74
0
 40
0
 40
0
 40
0
 40
0
 40
1
 40
1
 40
1
 40
1
 10
611.507700
 20
58.429800
 30
0.0
 10
608.648700
 20
54.491800
 30
0.0
 10
607.218700
 20
48.796800
 30
0.0
 10
607.218700
 20
41.343800
 30
0.0
  0
SPLINE
  5
15e
100
AcDbEntity
  8
mittelab
 62
7
100
AcDbSpline
 70
8
 71
3
 72
8
 73
4
 74
0
 40
0
 40
0
 40
0
 40
0
 40
1
 40
1
 40
1
 40
1
 10
607.218700
 20
41.343800
 30
0.0
 10
607.218700
 20
33.890800
 30
0.0
 10
608.648700
 20
28.171800
 30
0.0
 10
611.507700
 20
24.187800
 30
0.0
  0
SPLINE
  5
15f
100
AcDbEntity
  8
mittelab
 62
7
100
AcDbSpline
 70
8
 71
3
 72
8
 73
4
 74
0
 40
0
 40
0
 40
0
 40
0
 40
1
 40
1
 40
1
 40
1
 10
611.507700
 20
24.187800
 30
0.0
 10
614.413700
 20
20.249800
 30
0.0
 10
618.562700
 20
18.280800
 30
0.0
 10
623.952700
 20
18.280800
 30
0.0
  0
SPLINE
  5
160
100
AcDbEntity
  8
mittelab
 62
7
100
AcDbSpline
 70
8
 71
3
 72
8
 73
4
 74
0
 40
0
 40
0
 40
0
 40
0
 40
1
 40
1
 40
1
 40
1
 10
107.040690
 20
150.424830
 30
0.0
 10
86.721690
 20
146.755830
 30
0.0
 10
67.274690
 20
160.253830
 30
0.0
 10
63.606690
 20
180.573830
 30
0.0
  0
SPLINE
  5
161
100
AcDbEntity
  8
mittelab
 62
7
100
AcDbSpline
 70
8
 71
3
 72
8
 73
4
 74
0
 40
0
 40
0
 40
0
 40
0
 40
1
 40
1
 40
1
 40
1
 10
63.606690
 20
180.573830
 30
0.0
 10
59.937690
 20
200.892830
 30
0.0
 10
73.435690
 20
220.338830
 30
0.0
 10
93.755690
 20
224.007830
 30
0.0
  0
SPLINE
  5
162
100
AcDbEntity
  8
mittelab
 62
7
100
AcDbSpline
 70
8
 71
3
 72
8
 73
4
 74
0
 40
0
 40
0
 40
0
 40
0
 40
1
 40
1
 40
1
 40
1
 10
93.755690
 20
224.007830
 30
0.0
 10
114.074690
 20
227.676830
 30
0.0
 10
133.520690
 20
214.178830
 30
0.0
 10
137.189690
 20
193.858830
 30
0.0
  0
SPLINE
  5
163
100
AcDbEntity
  8
mittelab
 62
7
100
AcDbSpline
 70
8
 71
3
 72
8
 73
4
 74
0
 40
0
 40
0
 40
0
 40
0
 40
1
 40
1
 40
1
 40
1
 10
137.189690
 20
193.858830
 30
0.0
 10
140.858690
 20
173.539830
 30
0.0
 10
127.359690
 20
154.093830
 30
0.0
 10
107.040690
 20
150.424830
 30
0.0
  0
SPLINE
  5
164
100
AcDbEntity
  8
mittelab
 62
7
100
AcDbSpline
 70
8
 71
3
 72
8
 73
4
 74
0
 40
0
 40
0
 40
0
 40
0
 40
1
 40
1
 40
1
 40
1
 10
169.436690
 20
199.598830
 30
0.0
 10
162.896690
 20
239.131830
 30
0.0
 10
126.607690
 20
266.053830
 30
0.0
 10
88.382690
 20
259.730830
 30
0.0
  0
SPLINE
  5
165
100
AcDbEntity
  8
mittelab
 62
7
100
AcDbSpline
 70
8
 71
3
 72
8
 73
4
 74
0
 40
0
 40
0
 40
0
 40
0
 40
1
 40
1
 40
1
 40
1
 10
88.382690
 20
259.730830
 30
0.0
 10
50.157690
 20
253.407830
 30
0.0
 10
24.470690
 20
216.233830
 30
0.0
 10
31.010690
 20
176.700830
 30
0.0
  0
SPLINE
  5
166
100
AcDbEntity
  8
mittelab
 62
7
100
AcDbSpline
 70
8
 71
3
 72
8
 73
4
 74
0
 40
0
 40
0
 40
0
 40
0
 40
1
 40
1
 40
1
 40
1
 10
31.010690
 20
176.700830
 30
0.0
 10
34.220690
 20
157.296830
 30
0.0
 10
44.607690
 20
140.943830
 30
0.0
 10
58.863690
 20
130.055830
 30
0.0
  0
LWPOLYLINE
  5
167
100
AcDbEntity
  8
mittelab
 62
7
100
AcDbPolyline
 90
7
 70
0
 10
607.218700
 20
13.429800
 30
0.0
 10
607.218700
 20
2.038800
 30
0.0
 10
582.046700
 20
2.038800
 30
0.0
 10
582.046700
 20
111.445800
 30
0.0
 10
607.218700
 20
111.445800
 30
0.0
 10
607.218700
 20
69.257800
 30
0.0
 10
607.218700
 20
69.257800
 30
0.0
  0
SPLINE
  5
168
100
AcDbEntity
  8
mittelab
 62
7
100
AcDbSpline
 70
8
 71
3
 72
8
 73
4
 74
0
 40
0
 40
0
 40
0
 40
0
 40
1
 40
1
 40
1
 40
1
 10
150.773690
 20
137.281830
 30
0.0
 10
165.717690
 20
153.142830
 30
0.0
 10
173.348690
 20
175.944830
 30
0.0
 10
169.436690
 20
199.598830
 30
0.0
  0
LWPOLYLINE
  5
169
100
AcDbEntity
  8
mittelab
 62
7
100
AcDbPolyline
 90
4
 70
0
 10
58.863690
 20
130.055830
 30
0.0
 10
102.578690
 20
89.985830
 30
0.0
 10
150.833690
 20
137.226830
 30
0.0
 10
150.773690
 20
137.281830
 30
0.0
  0
ENDSEC
  0
SECTION
  2
OBJECTS
  0
DICTIONARY
  5
C
330
0
100
AcDbDictionary
  3
ACAD_GROUP
350
D
  3
ACAD_MLINESTYLE
350
17
  0
DICTIONARY
  5
D
330
C
100
AcDbDictionary
  0
DICTIONARY
  5
1A
330
C
100
AcDbDictionary
  0
DICTIONARY
  5
17
330
C
100
AcDbDictionary
  3
STANDARD
350
18
  0
DICTIONARY
  5
19
330
C
100
AcDbDictionary
  0
ENDSEC
  0
EOF
